<svg version="1.2" xmlns="http://www.w3.org/2000/svg" viewBox="0 0 131 36" width="131" height="36"><title>Bateria</title>
<defs><linearGradient id="gr" x1="-100%" x2="200%" gradientUnits="userSpaceOnUse"><stop offset="0" stop-color="#fff"><animate attributeName="offset" values="0;0.8" dur="2s" repeatCount="indefinite" /></stop><stop offset="0.1" stop-color="#fdb750"><animate attributeName="offset" values="0.1;0.9" dur="2s" repeatCount="indefinite" /></stop><stop offset="0.2" stop-color="#fff"><animate attributeName="offset" values="0.2;1" dur="2s" repeatCount="indefinite" /></stop></linearGradient></defs><style>.p{transform-origin: center}</style>
<path aria-label="Bateria" fill="url(#gr)" d="m34.8 27h-7.1v-18.5h6.4q3.4 0 5.1 1.3 1.8 1.3 1.8 3.8 0 1.3-0.7 2.4-0.7 1-2 1.5 1.4 0.3 2.3 1.4 0.8 1.1 0.8 2.7 0 2.6-1.7 4-1.7 1.4-4.9 1.4zm0.2-8h-3.5v4.9h3.2q1.4 0 2.1-0.6 0.8-0.6 0.8-1.8 0-2.5-2.6-2.5zm-3.5-7.4v4.7h2.8q2.9-0.1 2.9-2.3 0-1.3-0.8-1.8-0.7-0.6-2.3-0.6zm24.5 15.4l-1.3-3.8h-6.6l-1.3 3.8h-4.1l6.9-18.5h3.6l6.9 18.5zm-4.7-13.8l-2.3 6.9h4.7zm22.8-4.7v3.1h-5.7v15.4h-3.8v-15.4h-5.6v-3.1zm13.3 7.5v3h-7.3v5h8.6v3h-12.4v-18.5h12.3v3.1h-8.5v4.4zm13.8 11l-3.5-6.7h-3v6.7h-3.8v-18.5h6.9q3.2 0 5 1.5 1.8 1.5 1.8 4.1 0 1.9-0.8 3.2-0.8 1.2-2.5 2l4 7.5v0.2zm-6.5-15.4v5.6h3.1q1.4 0 2.2-0.8 0.8-0.7 0.8-2 0-1.3-0.8-2-0.7-0.8-2.3-0.8zm16.9-3.1v18.5h-3.8v-18.5zm15.5 18.5l-1.3-3.8h-6.7l-1.3 3.8h-4l6.9-18.5h3.5l6.9 18.5zm-4.6-13.8l-2.3 6.9h4.6z"/>
<g fill="#fdb750">
<path id="v1" class="p" d="m0 11h2v14h-2z"><animateTransform attributeName="transform" type="scale" values="1 1; 1 0.6; 1 1; 1 1; 1 1" begin="0s" dur="1s" repeatCount="indefinite"/></path>
<path id="v2" class="p" d="m4 6h2v24h-2z"><animateTransform attributeName="transform" type="scale" values="1 1; 1 1; 1 1.3; 1 1; 1 1" begin="0s" dur="1s" repeatCount="indefinite"/></path>
<path id="v3" class="p" d="m8 0h2v36h-2z"><animateTransform attributeName="transform" type="scale" values="1 1; 1 1; 1 1; 1 0.5; 1 1" begin="0s" dur="1s" repeatCount="indefinite"/></path>
<path id="v4" class="p" d="m12 4h2v28h-2z"><animateTransform attributeName="transform" type="scale" values="1 1; 1 0.6; 1 1; 1 1; 1 1" begin="0s" dur="1s" repeatCount="indefinite"/></path>
<path id="v5" class="p" d="m16 9h2v18h-2z"><animateTransform attributeName="transform" type="scale" values="1 1; 1 1; 1 1; 1 0.6; 1 1" begin="0s" dur="1s" repeatCount="indefinite"/></path>
<path id="v6" class="p" d="m20 14h2v8h-2z"><animateTransform attributeName="transform" type="scale" values="1 1; 1 1.6; 1 1; 1 1; 1 1" begin="0s" dur="1s" repeatCount="indefinite"/></path>
<path id="h" d="m0 17h22v2h-22z"/>
</g>
</svg>